<?xml version="1.0" encoding="UTF-8"?>
<svg id="_레이어_1" data-name="레이어_1" xmlns="http://www.w3.org/2000/svg" version="1.1" viewBox="0 0 50 50">
  <!-- Generator: Adobe Illustrator 30.0.0, SVG Export Plug-In . SVG Version: 2.1.1 Build 123)  -->
  <defs>
    <style>
      .st0 {
        fill: #fd895f;
      }
    </style>
  </defs>
  <path class="st0" d="M25,0h0c13.81,0,25,11.19,25,25h0c0,13.81-11.19,25-25,25h0C11.19,50,0,38.81,0,25h0C0,11.19,11.19,0,25,0Z"/>
  <path d="M32.84,22.94h-15.67c-1.04,0-1.54.8-1.54,1.78s.5,1.82,1.54,1.82h15.67c1.04,0,1.54-.84,1.54-1.82s-.5-1.78-1.54-1.78Z"/>
  <path d="M32.84,16h-15.67c-1.04,0-1.54.8-1.54,1.78s.5,1.82,1.54,1.82h15.67c1.04,0,1.54-.84,1.54-1.82s-.5-1.78-1.54-1.78Z"/>
  <path d="M32.84,30h-15.67c-1.04,0-1.54.8-1.54,1.78s.5,1.82,1.54,1.82h15.67c1.04,0,1.54-.84,1.54-1.82s-.5-1.78-1.54-1.78Z"/>
</svg>